<?xml version="1.0" encoding="UTF-8"?>
<!DOCTYPE svg PUBLIC "-//W3C//DTD SVG 1.1//EN" "http://www.w3.org/Graphics/SVG/1.1/DTD/svg11.dtd">
<svg xmlns="http://www.w3.org/2000/svg" version="1.1" width="850px" height="850px" style="shape-rendering:geometricPrecision; text-rendering:geometricPrecision; image-rendering:optimizeQuality; fill-rule:evenodd; clip-rule:evenodd" xmlns:xlink="http://www.w3.org/1999/xlink">
<g><path style="opacity:0.976" fill="#e9242a" d="M 541.5,448.5 C 541.489,446.983 540.823,445.816 539.5,445C 523.071,435.694 505.737,428.861 487.5,424.5C 470.576,418.505 453.909,419.338 437.5,427C 431.153,432.882 429.486,439.715 432.5,447.5C 435.382,460.098 441.049,471.264 449.5,481C 448.906,481.464 448.239,481.631 447.5,481.5C 436.238,474.739 427.072,465.739 420,454.5C 412.265,430.638 420.432,414.972 444.5,407.5C 437.71,401.349 434.377,393.682 434.5,384.5C 434.649,383.448 434.483,382.448 434,381.5C 429.874,386.759 427.708,392.759 427.5,399.5C 426.517,395.702 426.183,391.702 426.5,387.5C 428.18,384.14 429.847,380.807 431.5,377.5C 443.402,367.41 457.069,360.743 472.5,357.5C 472.5,356.5 472.5,355.5 472.5,354.5C 462.849,355.581 453.182,356.581 443.5,357.5C 440.076,357.518 436.743,357.018 433.5,356C 431.441,354.815 431.274,353.648 433,352.5C 442.272,354.033 451.439,353.533 460.5,351C 465.5,350.333 470.5,350.333 475.5,351C 480.693,352.543 483.026,356.043 482.5,361.5C 482.565,361.938 482.399,362.272 482,362.5C 479.683,359.903 476.85,359.07 473.5,360C 461.684,363.49 451.517,369.656 443,378.5C 438.954,384.541 438.454,390.874 441.5,397.5C 471.708,398.059 500.375,391.725 527.5,378.5C 519.783,354.549 507.116,333.715 489.5,316C 488.5,315.333 487.5,315.333 486.5,316C 477.63,322.723 467.63,326.723 456.5,328C 463.297,329.599 469.964,331.599 476.5,334C 490.466,341.462 493.3,351.962 485,365.5C 484.536,364.906 484.369,364.239 484.5,363.5C 484.497,350.655 478.83,341.155 467.5,335C 462.09,331.539 456.256,329.372 450,328.5C 448.167,328.833 446.333,329.167 444.5,329.5C 447.493,333.856 446.827,337.523 442.5,340.5C 442.205,336.859 440.539,334.025 437.5,332C 398.019,320.609 364.185,329.775 336,359.5C 334.066,362.034 332.732,364.701 332,367.5C 339.637,361.102 348.471,357.602 358.5,357C 369.345,355.908 380.012,356.741 390.5,359.5C 383.833,360.167 377.167,360.833 370.5,361.5C 356.716,362.093 344.382,366.426 333.5,374.5C 331.973,374.427 330.973,375.094 330.5,376.5C 328.973,376.427 327.973,377.094 327.5,378.5C 320.54,383.626 314.373,389.626 309,396.5C 301.059,407.391 293.892,418.724 287.5,430.5C 288.624,425.793 289.957,421.127 291.5,416.5C 277.839,382.979 284.172,353.813 310.5,329C 339.708,304.92 373.375,291.587 411.5,289C 453.332,284.97 492.665,292.97 529.5,313C 548.155,323.988 562.322,339.155 572,358.5C 582.943,392.681 574.609,421.347 547,444.5C 547.573,446.804 548.74,448.971 550.5,451C 547.649,450.828 545.149,449.661 543,447.5C 542.617,448.056 542.117,448.389 541.5,448.5 Z"/></g>
<g><path style="opacity:1" fill="#2f3a90" d="M 410.5,297.5 C 430.951,296.769 451.284,297.935 471.5,301C 476.637,301.867 481.637,303.201 486.5,305C 475.944,313.414 463.944,318.748 450.5,321C 445.297,321.648 440.13,322.481 435,323.5C 429.925,321.959 424.759,320.793 419.5,320C 401.735,320.966 385.402,316.632 370.5,307C 383.636,302.477 396.969,299.311 410.5,297.5 Z"/></g>
<g><path style="opacity:1" fill="#2f3c91" d="M 508.5,313.5 C 525.625,323.118 539.791,336.118 551,352.5C 553.428,356.744 555.594,361.078 557.5,365.5C 551.757,368.704 545.757,371.371 539.5,373.5C 538.558,373.392 537.725,373.059 537,372.5C 529.163,354.004 518.163,337.67 504,323.5C 499.533,320.035 495.367,316.202 491.5,312C 492.839,309.984 494.672,308.817 497,308.5C 501.21,309.507 505.044,311.174 508.5,313.5 Z"/></g>
<g><path style="opacity:1" fill="#2e3a90" d="M 352.5,313.5 C 362.785,316.471 372.785,320.304 382.5,325C 369.248,328.795 356.915,334.461 345.5,342C 335.125,349.374 328.292,359.208 325,371.5C 317.167,378 310,385.167 303.5,393C 299.871,392.89 296.204,392.724 292.5,392.5C 292.557,375.723 297.724,360.723 308,347.5C 320.41,332.915 335.243,321.581 352.5,313.5 Z"/></g>
<g><path style="opacity:1" fill="#2d3a90" d="M 482.5,361.5 C 483.167,362.167 483.833,362.833 484.5,363.5C 484.369,364.239 484.536,364.906 485,365.5C 493.3,351.962 490.466,341.462 476.5,334C 469.964,331.599 463.297,329.599 456.5,328C 467.63,326.723 477.63,322.723 486.5,316C 487.5,315.333 488.5,315.333 489.5,316C 507.116,333.715 519.783,354.549 527.5,378.5C 500.375,391.725 471.708,398.059 441.5,397.5C 438.454,390.874 438.954,384.541 443,378.5C 451.517,369.656 461.684,363.49 473.5,360C 476.85,359.07 479.683,359.903 482,362.5C 482.399,362.272 482.565,361.938 482.5,361.5 Z"/></g>
<g><path style="opacity:1" fill="#f9f3f5" d="M 508.5,313.5 C 525.037,320.367 539.537,330.367 552,343.5C 556.455,348.905 560.288,354.739 563.5,361C 561.649,362.752 559.649,364.252 557.5,365.5C 555.594,361.078 553.428,356.744 551,352.5C 539.791,336.118 525.625,323.118 508.5,313.5 Z"/></g>
<g><path style="opacity:1" fill="#fff8f8" d="M 484.5,363.5 C 483.833,362.833 483.167,362.167 482.5,361.5C 483.026,356.043 480.693,352.543 475.5,351C 470.5,350.333 465.5,350.333 460.5,351C 451.439,353.533 442.272,354.033 433,352.5C 431.274,353.648 431.441,354.815 433.5,356C 436.743,357.018 440.076,357.518 443.5,357.5C 453.182,356.581 462.849,355.581 472.5,354.5C 472.5,355.5 472.5,356.5 472.5,357.5C 457.069,360.743 443.402,367.41 431.5,377.5C 432.966,374.064 434.3,370.564 435.5,367C 434.825,363.991 433.158,361.657 430.5,360C 417.304,356.601 404.971,358.601 393.5,366C 392.304,366.654 392.304,367.154 393.5,367.5C 395.729,366.423 398.063,365.756 400.5,365.5C 393.15,370.338 385.15,373.505 376.5,375C 379.372,372.463 381.872,369.63 384,366.5C 384.749,365.365 384.583,364.365 383.5,363.5C 374.906,364.84 366.239,365.674 357.5,366C 349.223,368.147 341.223,370.981 333.5,374.5C 344.382,366.426 356.716,362.093 370.5,361.5C 377.841,361.666 385.174,361.5 392.5,361C 391.956,360.283 391.289,359.783 390.5,359.5C 380.012,356.741 369.345,355.908 358.5,357C 348.471,357.602 339.637,361.102 332,367.5C 332.732,364.701 334.066,362.034 336,359.5C 364.185,329.775 398.019,320.609 437.5,332C 440.539,334.025 442.205,336.859 442.5,340.5C 446.827,337.523 447.493,333.856 444.5,329.5C 446.333,329.167 448.167,328.833 450,328.5C 456.256,329.372 462.09,331.539 467.5,335C 478.83,341.155 484.497,350.655 484.5,363.5 Z"/></g>
<g><path style="opacity:1" fill="#ec2e30" d="M 387.5,333.5 C 399.067,332.379 409.734,334.879 419.5,341C 417.432,341.687 415.432,341.52 413.5,340.5C 408.226,344.977 402.226,347.477 395.5,348C 400.319,342.2 398.819,339.366 391,339.5C 383.147,341.784 375.314,344.284 367.5,347C 364.5,347.667 361.5,347.667 358.5,347C 358.043,346.586 357.709,346.086 357.5,345.5C 361.842,344.703 366.176,343.87 370.5,343C 375.97,339.27 381.637,336.104 387.5,333.5 Z"/></g>
<g><path style="opacity:1" fill="#ec3435" d="M 453.5,334.5 C 456.828,333.149 458.161,334.483 457.5,338.5C 455.143,338.663 452.81,338.497 450.5,338C 451.766,337.691 452.933,337.191 454,336.5C 454.692,335.563 454.525,334.897 453.5,334.5 Z"/></g>
<g><path style="opacity:1" fill="#ed3233" d="M 426.5,338.5 C 429.792,337.517 432.959,338.184 436,340.5C 436.447,346.077 433.947,349.911 428.5,352C 415.988,356.955 403.322,357.621 390.5,354C 401.074,353.72 411.408,352.054 421.5,349C 427.221,347.269 428.888,343.769 426.5,338.5 Z"/></g>
<g><path style="opacity:1" fill="#ec3032" d="M 381.5,347.5 C 383.5,346.833 385.5,346.167 387.5,345.5C 389.846,344.477 392.179,343.477 394.5,342.5C 394.714,344.144 394.38,345.644 393.5,347C 389.514,347.499 385.514,347.666 381.5,347.5 Z"/></g>
<g><path style="opacity:1" fill="#f7a2a4" d="M 387.5,345.5 C 385.5,346.167 383.5,346.833 381.5,347.5C 380.244,347.539 379.244,347.039 378.5,346C 381.482,345.502 384.482,345.335 387.5,345.5 Z"/></g>
<g><path style="opacity:1" fill="#ed3731" d="M 431.5,377.5 C 427.128,381.874 422.461,385.874 417.5,389.5C 417.062,389.565 416.728,389.399 416.5,389C 422.978,384.215 427.644,378.049 430.5,370.5C 430.281,369.062 429.781,367.729 429,366.5C 419.585,361.531 410.085,361.198 400.5,365.5C 398.063,365.756 395.729,366.423 393.5,367.5C 392.304,367.154 392.304,366.654 393.5,366C 404.971,358.601 417.304,356.601 430.5,360C 433.158,361.657 434.825,363.991 435.5,367C 434.3,370.564 432.966,374.064 431.5,377.5 Z"/></g>
<g><path style="opacity:1" fill="#f9b1b2" d="M 390.5,359.5 C 391.289,359.783 391.956,360.283 392.5,361C 385.174,361.5 377.841,361.666 370.5,361.5C 377.167,360.833 383.833,360.167 390.5,359.5 Z"/></g>
<g><path style="opacity:0.99" fill="#fcda04" d="M 417.5,389.5 C 410.416,395.888 402.416,401.055 393.5,405C 405.869,401.815 416.869,395.982 426.5,387.5C 426.183,391.702 426.517,395.702 427.5,399.5C 428.248,401.735 429.081,401.402 430,398.5C 431.237,393.627 432.737,388.96 434.5,384.5C 434.377,393.682 437.71,401.349 444.5,407.5C 420.432,414.972 412.265,430.638 420,454.5C 427.072,465.739 436.238,474.739 447.5,481.5C 444.794,481.425 442.127,481.092 439.5,480.5C 436.058,479.136 432.392,478.136 428.5,477.5C 426.308,477.757 424.641,478.757 423.5,480.5C 418.279,483.362 413.112,486.362 408,489.5C 407.283,488.956 406.783,488.289 406.5,487.5C 397.069,476.723 392.235,464.056 392,449.5C 390.994,446.11 388.994,445.11 386,446.5C 382.73,454.151 382.73,461.818 386,469.5C 388.022,473.003 390.189,476.337 392.5,479.5C 390.399,477.891 388.065,477.391 385.5,478C 382.077,481.128 378.243,483.628 374,485.5C 369.646,481.975 365.479,478.308 361.5,474.5C 358.57,476.881 355.403,478.881 352,480.5C 350.013,478.536 348.513,476.203 347.5,473.5C 346.675,472.614 345.675,472.281 344.5,472.5C 344.259,476.707 343.259,480.707 341.5,484.5C 339.146,482.812 337.146,480.812 335.5,478.5C 334.242,474.238 333.742,469.904 334,465.5C 334.792,463.413 335.959,461.579 337.5,460C 340.534,458.614 343.2,456.781 345.5,454.5C 344.473,452.976 342.973,452.309 341,452.5C 334.057,452.943 330.224,456.61 329.5,463.5C 327.15,464.861 324.816,466.194 322.5,467.5C 327.426,462.887 329.26,457.22 328,450.5C 326.48,446.648 323.647,444.815 319.5,445C 324.812,440.008 330.812,436.008 337.5,433C 339.922,430.888 339.922,428.888 337.5,427C 335.365,426.365 333.365,426.699 331.5,428C 319.581,435.025 311.914,445.191 308.5,458.5C 297.676,466.192 285.676,468.525 272.5,465.5C 283.879,462.896 293.713,457.562 302,449.5C 302.833,447.5 303.667,445.5 304.5,443.5C 307.059,442.392 309.392,441.059 311.5,439.5C 317.764,436.404 322.598,431.737 326,425.5C 327.318,422.57 327.985,419.57 328,416.5C 326.045,417.453 324.378,418.787 323,420.5C 319.053,426.943 314.553,432.943 309.5,438.5C 306.622,440.105 303.622,441.439 300.5,442.5C 303.318,440.513 305.652,438.013 307.5,435C 307.012,433.416 306.012,432.249 304.5,431.5C 305.833,430.38 306.333,429.047 306,427.5C 304.139,428.764 302.139,429.764 300,430.5C 298.743,430.15 298.409,429.483 299,428.5C 307.656,419.844 317.823,413.678 329.5,410C 326.634,408.543 323.634,408.21 320.5,409C 305.859,414.146 295.192,423.646 288.5,437.5C 286.684,435.383 286.35,433.049 287.5,430.5C 293.892,418.724 301.059,407.391 309,396.5C 314.373,389.626 320.54,383.626 327.5,378.5C 329.027,378.573 330.027,377.906 330.5,376.5C 332.027,376.573 333.027,375.906 333.5,374.5C 341.223,370.981 349.223,368.147 357.5,366C 366.239,365.674 374.906,364.84 383.5,363.5C 384.583,364.365 384.749,365.365 384,366.5C 381.872,369.63 379.372,372.463 376.5,375C 385.15,373.505 393.15,370.338 400.5,365.5C 410.085,361.198 419.585,361.531 429,366.5C 429.781,367.729 430.281,369.062 430.5,370.5C 427.644,378.049 422.978,384.215 416.5,389C 416.728,389.399 417.062,389.565 417.5,389.5 Z"/></g>
<g><path style="opacity:1" fill="#fef0d2" d="M 333.5,374.5 C 333.027,375.906 332.027,376.573 330.5,376.5C 330.973,375.094 331.973,374.427 333.5,374.5 Z"/></g>
<g><path style="opacity:1" fill="#fee1ad" d="M 330.5,376.5 C 330.027,377.906 329.027,378.573 327.5,378.5C 327.973,377.094 328.973,376.427 330.5,376.5 Z"/></g>
<g><path style="opacity:1" fill="#ec2d25" d="M 342.5,376.5 C 343.822,376.33 344.989,376.663 346,377.5C 346.667,379.833 346.667,382.167 346,384.5C 336.187,399.996 322.021,408.163 303.5,409C 315.944,403.9 326.777,396.4 336,386.5C 337.928,382.968 340.095,379.634 342.5,376.5 Z"/></g>
<g><path style="opacity:0.998" fill="#faf5f7" d="M 549.5,438.5 C 560.854,420.399 565.187,400.733 562.5,379.5C 564.588,378.061 566.921,377.394 569.5,377.5C 573.129,401.353 566.462,421.687 549.5,438.5 Z"/></g>
<g><path style="opacity:0.999" fill="#2d3b91" d="M 562.5,379.5 C 565.187,400.733 560.854,420.399 549.5,438.5C 547.856,440.481 546.19,442.481 544.5,444.5C 538.34,439.92 532.007,435.586 525.5,431.5C 534.66,418.688 539.66,404.355 540.5,388.5C 547.696,385.103 555.03,382.103 562.5,379.5 Z"/></g>
<g><path style="opacity:1" fill="#fff7ea" d="M 431.5,377.5 C 429.847,380.807 428.18,384.14 426.5,387.5C 416.869,395.982 405.869,401.815 393.5,405C 402.416,401.055 410.416,395.888 417.5,389.5C 422.461,385.874 427.128,381.874 431.5,377.5 Z"/></g>
<g><path style="opacity:1" fill="#ec3225" d="M 354.5,379.5 C 355.115,386.807 352.782,393.307 347.5,399C 359.157,398.01 359.491,399.677 348.5,404C 343.411,404.826 338.411,404.492 333.5,403C 332.289,402.107 332.289,401.274 333.5,400.5C 342.855,395.812 349.855,388.812 354.5,379.5 Z"/></g>
<g><path style="opacity:1" fill="#fff4f0" d="M 434.5,384.5 C 432.737,388.96 431.237,393.627 430,398.5C 429.081,401.402 428.248,401.735 427.5,399.5C 427.708,392.759 429.874,386.759 434,381.5C 434.483,382.448 434.649,383.448 434.5,384.5 Z"/></g>
<g><path style="opacity:1" fill="#323a8f" d="M 528.5,391.5 C 529.46,404.775 525.293,416.442 516,426.5C 495.182,413.006 472.348,406.172 447.5,406C 473.64,404.921 499.306,400.921 524.5,394C 526.066,393.392 527.4,392.558 528.5,391.5 Z"/></g>
<g><path style="opacity:1" fill="#3f3989" d="M 293.5,400.5 C 295.857,400.337 298.19,400.503 300.5,401C 298.954,403.257 297.288,405.424 295.5,407.5C 294.579,405.223 293.913,402.89 293.5,400.5 Z"/></g>
<g><path style="opacity:0.926" fill="#ec3125" d="M 300.5,442.5 C 297.221,443.492 293.888,443.659 290.5,443C 303.777,435.629 303.443,434.129 289.5,438.5C 288.893,438.376 288.56,438.043 288.5,437.5C 295.192,423.646 305.859,414.146 320.5,409C 323.634,408.21 326.634,408.543 329.5,410C 317.823,413.678 307.656,419.844 299,428.5C 298.409,429.483 298.743,430.15 300,430.5C 302.139,429.764 304.139,428.764 306,427.5C 306.333,429.047 305.833,430.38 304.5,431.5C 306.012,432.249 307.012,433.416 307.5,435C 305.652,438.013 303.318,440.513 300.5,442.5 Z"/></g>
<g><path style="opacity:0.994" fill="#fffdf3" d="M 311.5,439.5 C 310.833,439.167 310.167,438.833 309.5,438.5C 314.553,432.943 319.053,426.943 323,420.5C 324.378,418.787 326.045,417.453 328,416.5C 327.985,419.57 327.318,422.57 326,425.5C 322.598,431.737 317.764,436.404 311.5,439.5 Z"/></g>
<g><path style="opacity:1" fill="#ffefe9" d="M 487.5,424.5 C 475.066,422.772 462.733,423.272 450.5,426C 442.878,428.301 437.045,432.801 433,439.5C 432.503,442.146 432.336,444.813 432.5,447.5C 429.486,439.715 431.153,432.882 437.5,427C 453.909,419.338 470.576,418.505 487.5,424.5 Z"/></g>
<g><path style="opacity:0.987" fill="#fcd902" d="M 487.5,424.5 C 505.737,428.861 523.071,435.694 539.5,445C 540.823,445.816 541.489,446.983 541.5,448.5C 534.073,453.262 526.406,457.595 518.5,461.5C 506.076,451.95 492.409,444.45 477.5,439C 469.23,437.463 460.897,437.13 452.5,438C 438.584,442.322 435.084,450.822 442,463.5C 443.667,465.167 445.333,466.833 447,468.5C 446.123,450.483 454.623,443.65 472.5,448C 487.902,450.52 502.235,455.687 515.5,463.5C 493.6,473.305 470.934,479.305 447.5,481.5C 448.239,481.631 448.906,481.464 449.5,481C 441.049,471.264 435.382,460.098 432.5,447.5C 432.336,444.813 432.503,442.146 433,439.5C 437.045,432.801 442.878,428.301 450.5,426C 462.733,423.272 475.066,422.772 487.5,424.5 Z"/></g>
<g><path style="opacity:0.981" fill="#eb2a26" d="M 518.5,461.5 C 521.144,463.969 523.977,466.302 527,468.5C 527.667,469.167 527.667,469.833 527,470.5C 523.222,468.03 519.389,465.697 515.5,463.5C 502.235,455.687 487.902,450.52 472.5,448C 454.623,443.65 446.123,450.483 447,468.5C 445.333,466.833 443.667,465.167 442,463.5C 435.084,450.822 438.584,442.322 452.5,438C 460.897,437.13 469.23,437.463 477.5,439C 492.409,444.45 506.076,451.95 518.5,461.5 Z"/></g>
<g><path style="opacity:0.897" fill="#eb2927" d="M 322.5,467.5 C 318.675,471.753 314.009,473.753 308.5,473.5C 309.456,471.925 310.123,470.258 310.5,468.5C 308.989,465.456 308.322,462.122 308.5,458.5C 311.914,445.191 319.581,435.025 331.5,428C 333.365,426.699 335.365,426.365 337.5,427C 339.922,428.888 339.922,430.888 337.5,433C 330.812,436.008 324.812,440.008 319.5,445C 323.647,444.815 326.48,446.648 328,450.5C 329.26,457.22 327.426,462.887 322.5,467.5 Z M 310.5,468.5 C 311.273,460.344 314.106,453.011 319,446.5C 322.746,453.67 321.58,460.17 315.5,466C 313.922,467.094 312.255,467.928 310.5,468.5 Z"/></g>
<g><path style="opacity:0.973" fill="#ec2f25" d="M 406.5,487.5 C 401.209,485.857 396.542,483.19 392.5,479.5C 390.189,476.337 388.022,473.003 386,469.5C 382.73,461.818 382.73,454.151 386,446.5C 388.994,445.11 390.994,446.11 392,449.5C 392.235,464.056 397.069,476.723 406.5,487.5 Z"/></g>
<g><path style="opacity:0.94" fill="#ec3025" d="M 335.5,478.5 C 331.037,474.563 329.037,469.563 329.5,463.5C 330.224,456.61 334.057,452.943 341,452.5C 342.973,452.309 344.473,452.976 345.5,454.5C 343.2,456.781 340.534,458.614 337.5,460C 335.959,461.579 334.792,463.413 334,465.5C 333.742,469.904 334.242,474.238 335.5,478.5 Z"/></g>
<g><path style="opacity:0.842" fill="#fffefa" d="M 439.5,480.5 C 434.143,481.554 428.81,481.554 423.5,480.5C 424.641,478.757 426.308,477.757 428.5,477.5C 432.392,478.136 436.058,479.136 439.5,480.5 Z"/></g>
<g><path style="opacity:0.883" fill="#ea2026" d="M 91.5,506.5 C 96.1785,506.334 100.845,506.501 105.5,507C 111.679,508.346 114.679,512.179 114.5,518.5C 114.35,527.649 109.684,531.982 100.5,531.5C 100.5,536.833 100.5,542.167 100.5,547.5C 97.5,547.5 94.5,547.5 91.5,547.5C 91.5,533.833 91.5,520.167 91.5,506.5 Z M 100.5,513.5 C 105.151,514.24 106.651,516.906 105,521.5C 103.846,522.743 102.512,523.743 101,524.5C 100.501,520.848 100.335,517.182 100.5,513.5 Z"/></g>
<g><path style="opacity:0.904" fill="#ea2026" d="M 115.5,506.5 C 122.5,506.5 129.5,506.5 136.5,506.5C 136.5,509.5 136.5,512.5 136.5,515.5C 134.5,515.5 132.5,515.5 130.5,515.5C 130.5,526.167 130.5,536.833 130.5,547.5C 127.5,547.5 124.5,547.5 121.5,547.5C 121.5,536.833 121.5,526.167 121.5,515.5C 119.5,515.5 117.5,515.5 115.5,515.5C 115.5,512.5 115.5,509.5 115.5,506.5 Z"/></g>
<g><path style="opacity:0.9" fill="#ea2026" d="M 162.5,506.5 C 166.167,506.5 169.833,506.5 173.5,506.5C 173.817,509.572 173.484,512.572 172.5,515.5C 167.775,513.613 164.275,514.946 162,519.5C 159.448,526.049 160.281,532.049 164.5,537.5C 167.308,539.774 170.308,540.107 173.5,538.5C 173.817,541.572 173.484,544.572 172.5,547.5C 158.036,549.047 150.703,542.381 150.5,527.5C 150.166,517.816 154.166,510.816 162.5,506.5 Z"/></g>
<g><path style="opacity:0.915" fill="#ea2026" d="M 177.5,506.5 C 180.5,506.5 183.5,506.5 186.5,506.5C 186.5,511.5 186.5,516.5 186.5,521.5C 189.167,521.5 191.833,521.5 194.5,521.5C 194.5,516.5 194.5,511.5 194.5,506.5C 197.5,506.5 200.5,506.5 203.5,506.5C 203.5,520.167 203.5,533.833 203.5,547.5C 200.5,547.5 197.5,547.5 194.5,547.5C 194.5,541.833 194.5,536.167 194.5,530.5C 191.833,530.5 189.167,530.5 186.5,530.5C 186.5,536.167 186.5,541.833 186.5,547.5C 183.5,547.5 180.5,547.5 177.5,547.5C 177.5,533.833 177.5,520.167 177.5,506.5 Z"/></g>
<g><path style="opacity:0.902" fill="#ea2026" d="M 214.5,506.5 C 217.833,506.5 221.167,506.5 224.5,506.5C 227.267,519.5 230.1,532.5 233,545.5C 234.633,532.503 236.133,519.503 237.5,506.5C 241.167,506.5 244.833,506.5 248.5,506.5C 250.504,530.486 252.504,530.486 254.5,506.5C 258.5,506.5 262.5,506.5 266.5,506.5C 267.445,520.171 268.445,533.838 269.5,547.5C 266.5,547.5 263.5,547.5 260.5,547.5C 260.111,539.164 259.611,530.831 259,522.5C 257.412,530.783 256.245,539.116 255.5,547.5C 252.833,547.5 250.167,547.5 247.5,547.5C 246.755,538.454 245.589,529.454 244,520.5C 243.375,529.497 242.875,538.497 242.5,547.5C 236.491,547.666 230.491,547.499 224.5,547C 223.577,544.959 223.244,542.792 223.5,540.5C 220.833,540.5 218.167,540.5 215.5,540.5C 215.682,542.591 215.348,544.591 214.5,546.5C 211.5,547.833 208.5,547.833 205.5,546.5C 209.011,533.276 212.011,519.943 214.5,506.5 Z M 218.5,523.5 C 219.117,523.611 219.617,523.944 220,524.5C 220.502,527.513 221.002,530.513 221.5,533.5C 220.167,533.5 218.833,533.5 217.5,533.5C 218.207,530.214 218.54,526.881 218.5,523.5 Z"/></g>
<g><path style="opacity:0.896" fill="#ea2026" d="M 272.5,506.5 C 277.179,506.334 281.845,506.501 286.5,507C 292.919,508.421 295.919,512.421 295.5,519C 295.128,527.868 290.461,532.035 281.5,531.5C 281.5,536.833 281.5,542.167 281.5,547.5C 278.5,547.5 275.5,547.5 272.5,547.5C 272.5,533.833 272.5,520.167 272.5,506.5 Z M 281.5,513.5 C 286.448,514.676 287.781,517.676 285.5,522.5C 284.372,523.262 283.205,523.929 282,524.5C 281.501,520.848 281.335,517.182 281.5,513.5 Z"/></g>
<g><path style="opacity:0.939" fill="#ea2026" d="M 311.5,506.5 C 316.179,506.334 320.845,506.501 325.5,507C 329.527,507.427 332.027,509.594 333,513.5C 334.951,520.414 333.118,525.914 327.5,530C 330.536,535.568 332.869,541.402 334.5,547.5C 331.482,547.665 328.482,547.498 325.5,547C 323.476,542.597 321.642,538.097 320,533.5C 319.501,538.155 319.334,542.821 319.5,547.5C 316.833,547.5 314.167,547.5 311.5,547.5C 311.5,533.833 311.5,520.167 311.5,506.5 Z M 319.5,513.5 C 324.755,514.677 326.255,517.677 324,522.5C 322.667,523.167 321.333,523.833 320,524.5C 319.501,520.848 319.335,517.182 319.5,513.5 Z"/></g>
<g><path style="opacity:0.924" fill="#ea2026" d="M 337.5,506.5 C 343.5,506.5 349.5,506.5 355.5,506.5C 355.5,509.5 355.5,512.5 355.5,515.5C 352.167,515.5 348.833,515.5 345.5,515.5C 345.5,517.833 345.5,520.167 345.5,522.5C 348.5,522.5 351.5,522.5 354.5,522.5C 354.5,525.167 354.5,527.833 354.5,530.5C 351.5,530.5 348.5,530.5 345.5,530.5C 345.5,533.167 345.5,535.833 345.5,538.5C 348.833,538.5 352.167,538.5 355.5,538.5C 355.5,541.5 355.5,544.5 355.5,547.5C 349.5,547.5 343.5,547.5 337.5,547.5C 337.5,533.833 337.5,520.167 337.5,506.5 Z"/></g>
<g><path style="opacity:0.881" fill="#ea2026" d="M 363.5,506.5 C 367.911,506.021 372.078,506.688 376,508.5C 376.818,511.227 376.652,513.894 375.5,516.5C 371.711,513.371 368.711,513.871 366.5,518C 369.987,522.155 373.487,526.322 377,530.5C 379.14,544.697 373.307,550.197 359.5,547C 358.213,543.875 358.213,540.709 359.5,537.5C 363.289,540.629 366.289,540.129 368.5,536C 364.632,531.797 361.132,527.297 358,522.5C 356.589,515.896 358.422,510.563 363.5,506.5 Z"/></g>
<g><path style="opacity:0.845" fill="#ea2026" d="M 378.5,506.5 C 385.833,506.5 393.167,506.5 400.5,506.5C 400.5,509.5 400.5,512.5 400.5,515.5C 398.5,515.5 396.5,515.5 394.5,515.5C 394.5,526.167 394.5,536.833 394.5,547.5C 391.167,547.5 387.833,547.5 384.5,547.5C 384.5,536.833 384.5,526.167 384.5,515.5C 382.5,515.5 380.5,515.5 378.5,515.5C 378.5,512.5 378.5,509.5 378.5,506.5 Z"/></g>
<g><path style="opacity:0.897" fill="#ea2026" d="M 410.5,506.5 C 420.466,504.392 426.966,508.058 430,517.5C 432.447,526.585 431.447,535.252 427,543.5C 419.374,550.382 412.041,550.049 405,542.5C 400.092,531.67 400.426,521.003 406,510.5C 407.667,509.267 409.167,507.933 410.5,506.5 Z M 415.5,514.5 C 417.17,514.751 418.67,515.418 420,516.5C 422.708,522.707 423.041,529.04 421,535.5C 418,540.833 415,540.833 412,535.5C 410,529.833 410,524.167 412,518.5C 412.69,516.65 413.856,515.316 415.5,514.5 Z"/></g>
<g><path style="opacity:0.84" fill="#ea2026" d="M 447.5,506.5 C 450.833,506.5 454.167,506.5 457.5,506.5C 457.5,520.167 457.5,533.833 457.5,547.5C 454.167,547.5 450.833,547.5 447.5,547.5C 447.5,533.833 447.5,520.167 447.5,506.5 Z"/></g>
<g><path style="opacity:0.897" fill="#ea2026" d="M 462.5,506.5 C 465.833,506.5 469.167,506.5 472.5,506.5C 474.692,513.91 477.192,521.243 480,528.5C 480.5,521.174 480.666,513.841 480.5,506.5C 483.167,506.5 485.833,506.5 488.5,506.5C 488.5,520.167 488.5,533.833 488.5,547.5C 485.5,547.5 482.5,547.5 479.5,547.5C 477.504,540.345 475.004,533.345 472,526.5C 471.5,533.492 471.334,540.492 471.5,547.5C 468.5,547.5 465.5,547.5 462.5,547.5C 462.5,533.833 462.5,520.167 462.5,506.5 Z"/></g>
<g><path style="opacity:0.917" fill="#ea2026" d="M 494.5,506.5 C 516.899,505.233 525.066,515.566 519,537.5C 517.167,542 514,545.167 509.5,547C 504.511,547.499 499.511,547.666 494.5,547.5C 494.5,533.833 494.5,520.167 494.5,506.5 Z M 503.5,514.5 C 509.412,516.628 512.078,520.961 511.5,527.5C 511.724,533.06 509.39,537.06 504.5,539.5C 503.502,531.193 503.169,522.86 503.5,514.5 Z"/></g>
<g><path style="opacity:0.9" fill="#ea2026" d="M 532.5,506.5 C 543.892,504.396 550.392,509.062 552,520.5C 553.263,528.18 552.263,535.513 549,542.5C 542.034,550.112 534.7,550.445 527,543.5C 523.664,535.502 522.664,527.168 524,518.5C 525.147,513.204 527.98,509.204 532.5,506.5 Z M 536.5,514.5 C 538.17,514.751 539.67,515.418 541,516.5C 543.924,523.011 544.258,529.678 542,536.5C 539.633,539.932 536.966,540.265 534,537.5C 532.483,531.92 532.149,526.253 533,520.5C 533.564,518.113 534.73,516.113 536.5,514.5 Z"/></g>
<g><path style="opacity:0.906" fill="#ea2026" d="M 556.5,506.5 C 559.777,506.216 562.943,506.549 566,507.5C 568.667,514.833 571.333,522.167 574,529.5C 573.738,521.863 573.571,514.197 573.5,506.5C 576.5,506.5 579.5,506.5 582.5,506.5C 582.5,520.167 582.5,533.833 582.5,547.5C 579.428,547.817 576.428,547.484 573.5,546.5C 570.389,539.278 567.556,531.944 565,524.5C 564.5,532.159 564.334,539.826 564.5,547.5C 561.833,547.5 559.167,547.5 556.5,547.5C 556.5,533.833 556.5,520.167 556.5,506.5 Z"/></g>
<g><path style="opacity:0.894" fill="#ea2026" d="M 587.5,506.5 C 593.5,506.5 599.5,506.5 605.5,506.5C 605.5,509.5 605.5,512.5 605.5,515.5C 602.5,515.5 599.5,515.5 596.5,515.5C 596.5,517.833 596.5,520.167 596.5,522.5C 599.167,522.5 601.833,522.5 604.5,522.5C 604.5,525.167 604.5,527.833 604.5,530.5C 601.833,530.5 599.167,530.5 596.5,530.5C 596.5,533.167 596.5,535.833 596.5,538.5C 599.5,538.5 602.5,538.5 605.5,538.5C 605.5,541.5 605.5,544.5 605.5,547.5C 599.5,547.5 593.5,547.5 587.5,547.5C 587.5,533.833 587.5,520.167 587.5,506.5 Z"/></g>
<g><path style="opacity:0.883" fill="#ea2026" d="M 614.5,506.5 C 618.24,506.241 621.906,506.574 625.5,507.5C 626.655,510.446 626.821,513.446 626,516.5C 622.411,513.443 619.578,513.943 617.5,518C 621.08,522.391 624.58,526.891 628,531.5C 629.216,546.059 622.882,551.059 609,546.5C 608.502,543.518 608.335,540.518 608.5,537.5C 610.747,537.915 612.914,538.582 615,539.5C 617.163,539.505 618.663,538.505 619.5,536.5C 616.19,532.022 612.69,527.689 609,523.5C 607.074,516.401 608.907,510.734 614.5,506.5 Z"/></g>
<g><path style="opacity:0.934" fill="#ea2026" d="M 632.5,506.5 C 635.5,506.5 638.5,506.5 641.5,506.5C 641.5,520.167 641.5,533.833 641.5,547.5C 638.5,547.5 635.5,547.5 632.5,547.5C 632.5,533.833 632.5,520.167 632.5,506.5 Z"/></g>
<g><path style="opacity:0.909" fill="#ea2026" d="M 653.5,506.5 C 657.03,505.989 660.196,506.656 663,508.5C 665.9,521.5 668.733,534.5 671.5,547.5C 668.428,547.817 665.428,547.484 662.5,546.5C 661.652,544.591 661.318,542.591 661.5,540.5C 658.833,540.5 656.167,540.5 653.5,540.5C 653.756,542.792 653.423,544.959 652.5,547C 649.446,547.821 646.446,547.655 643.5,546.5C 646.841,533.138 650.174,519.805 653.5,506.5 Z M 657.5,523.5 C 658.581,526.627 659.247,529.96 659.5,533.5C 658.022,533.762 656.689,533.429 655.5,532.5C 656.169,529.47 656.835,526.47 657.5,523.5 Z"/></g>
<g><path style="opacity:0.904" fill="#ea2026" d="M 683.5,506.5 C 690.5,506.5 697.5,506.5 704.5,506.5C 704.5,509.5 704.5,512.5 704.5,515.5C 702.5,515.5 700.5,515.5 698.5,515.5C 698.5,526.167 698.5,536.833 698.5,547.5C 695.5,547.5 692.5,547.5 689.5,547.5C 689.5,536.833 689.5,526.167 689.5,515.5C 687.5,515.5 685.5,515.5 683.5,515.5C 683.5,512.5 683.5,509.5 683.5,506.5 Z"/></g>
<g><path style="opacity:0.896" fill="#ea2026" d="M 707.5,506.5 C 713.909,506.183 720.243,506.683 726.5,508C 732.576,513.872 732.909,520.039 727.5,526.5C 730.717,528.605 732.05,531.605 731.5,535.5C 731.82,541.039 729.486,544.872 724.5,547C 718.843,547.499 713.176,547.666 707.5,547.5C 707.5,533.833 707.5,520.167 707.5,506.5 Z M 716.5,514.5 C 722.575,514.803 723.909,517.47 720.5,522.5C 719.264,523.246 717.93,523.579 716.5,523.5C 716.5,520.5 716.5,517.5 716.5,514.5 Z M 716.5,530.5 C 722.643,531.026 723.976,533.86 720.5,539C 719.207,539.49 717.873,539.657 716.5,539.5C 716.5,536.5 716.5,533.5 716.5,530.5 Z"/></g>
<g><path style="opacity:0.889" fill="#ea2026" d="M 735.5,506.5 C 738.5,506.5 741.5,506.5 744.5,506.5C 744.334,511.179 744.501,515.845 745,520.5C 746.833,516.167 748.667,511.833 750.5,507.5C 753.833,506.167 757.167,506.167 760.5,507.5C 757.696,513.608 755.029,519.775 752.5,526C 755.472,533.086 758.139,540.253 760.5,547.5C 757.167,547.5 753.833,547.5 750.5,547.5C 748.776,542.497 746.942,537.497 745,532.5C 744.501,537.489 744.334,542.489 744.5,547.5C 741.5,547.5 738.5,547.5 735.5,547.5C 735.5,533.833 735.5,520.167 735.5,506.5 Z"/></g>
</svg>
