<?xml version="1.0" encoding="UTF-8"?>
<!DOCTYPE svg PUBLIC "-//W3C//DTD SVG 1.1//EN" "http://www.w3.org/Graphics/SVG/1.1/DTD/svg11.dtd">
<svg xmlns="http://www.w3.org/2000/svg" version="1.1" width="2560px" height="602px" style="shape-rendering:geometricPrecision; text-rendering:geometricPrecision; image-rendering:optimizeQuality; fill-rule:evenodd; clip-rule:evenodd" xmlns:xlink="http://www.w3.org/1999/xlink">
<g><path style="opacity:0.995" fill="#00aa12" d="M -0.5,324.5 C -0.5,307.833 -0.5,291.167 -0.5,274.5C 11.815,169.985 63.1484,91.1512 153.5,38C 236.175,-5.22244 321.508,-11.2224 409.5,20C 498.508,56.0083 558.342,119.508 589,210.5C 616.341,307.12 601.341,396.453 544,478.5C 508.745,525.042 463.911,558.876 409.5,580C 385.078,585.305 364.912,578.471 349,559.5C 334.519,537.986 333.853,515.986 347,493.5C 350.465,489.033 354.298,484.867 358.5,481C 370.952,473.958 383.619,467.291 396.5,461C 455.316,423.755 485.982,370.089 488.5,300C 485.809,230.584 455.475,177.251 397.5,140C 345.803,110.59 291.803,105.59 235.5,125C 172.641,150.216 133.141,195.716 117,261.5C 104.834,329.325 123,387.491 171.5,436C 181.14,444.151 191.14,451.818 201.5,459C 214.865,466.015 228.198,473.015 241.5,480C 266.128,503.729 269.628,530.229 252,559.5C 232.919,581.319 209.752,587.152 182.5,577C 94.5892,536.691 36.7559,470.191 9,377.5C 4.73247,359.884 1.56581,342.218 -0.5,324.5 Z"/></g>
<g><path style="opacity:0.984" fill="#000000" d="M 2559.5,92.5 C 2559.5,93.5 2559.5,94.5 2559.5,95.5C 2507.22,143.441 2455.56,192.107 2404.5,241.5C 2455.84,309.494 2507.51,377.16 2559.5,444.5C 2559.5,445.5 2559.5,446.5 2559.5,447.5C 2523.17,447.667 2486.83,447.5 2450.5,447C 2415.05,397.22 2379.22,347.72 2343,298.5C 2324.64,316.532 2305.97,334.199 2287,351.5C 2286.5,383.498 2286.33,415.498 2286.5,447.5C 2255.83,447.5 2225.17,447.5 2194.5,447.5C 2194.5,299.167 2194.5,150.833 2194.5,2.5C 2225.17,2.5 2255.83,2.5 2286.5,2.5C 2286.33,79.8341 2286.5,157.167 2287,234.5C 2337.5,187.333 2388,140.167 2438.5,93C 2478.83,92.5 2519.17,92.3333 2559.5,92.5 Z"/></g>
<g><path style="opacity:0.987" fill="#000000" d="M 988.5,601.5 C 964.5,601.5 940.5,601.5 916.5,601.5C 870.304,595.387 829.304,577.554 793.5,548C 789.667,544.167 785.833,540.333 782,536.5C 781.333,535.833 781.333,535.167 782,534.5C 802.015,514.984 822.182,495.651 842.5,476.5C 869.187,501.24 900.854,514.407 937.5,516C 973.902,520.427 1004.4,509.26 1029,482.5C 1038.58,469.425 1043.58,454.758 1044,438.5C 1044.83,427.152 1044.67,415.819 1043.5,404.5C 1018.17,428.79 987.841,441.956 952.5,444C 891.078,449.311 838.911,430.144 796,386.5C 756.963,339.01 743.963,285.01 757,224.5C 775.059,158.774 816.892,116.608 882.5,98C 922.747,89.0305 962.413,91.0305 1001.5,104C 1017.53,110.379 1031.7,119.545 1044,131.5C 1044.82,118.258 1044.66,105.091 1043.5,92C 1074.16,91.5 1104.83,91.3334 1135.5,91.5C 1135.67,210.167 1135.5,328.834 1135,447.5C 1129.91,510.879 1099.08,556.713 1042.5,585C 1025.05,592.689 1007.05,598.189 988.5,601.5 Z M 939.5,175.5 C 969.409,174.08 995.742,182.914 1018.5,202C 1029.95,212.799 1037.12,225.966 1040,241.5C 1051.67,316.137 1020,356.137 945,361.5C 883.667,360.163 851.167,328.997 847.5,268C 849.66,218.502 874.993,188.502 923.5,178C 928.988,177.226 934.321,176.393 939.5,175.5 Z"/></g>
<g><path style="opacity:0.986" fill="#000000" d="M 1362.5,91.5 C 1412.88,87.7584 1458.88,99.9251 1500.5,128C 1553.28,169.599 1576.11,224.099 1569,291.5C 1558.13,359.698 1520.63,406.531 1456.5,432C 1400.36,451.539 1345.03,449.539 1290.5,426C 1226.38,393.14 1193.04,340.473 1190.5,268C 1193.18,196.249 1226.18,143.916 1289.5,111C 1312.83,100.253 1337.16,93.7534 1362.5,91.5 Z M 1365.5,174.5 C 1400.51,170.443 1430.01,181.11 1454,206.5C 1476.74,238.881 1480.74,273.548 1466,310.5C 1452.01,339.1 1429.18,355.933 1397.5,361C 1360.94,366.814 1330.11,356.314 1305,329.5C 1282.53,297.43 1278.53,263.097 1293,226.5C 1308.1,196.57 1332.27,179.236 1365.5,174.5 Z"/></g>
<g><path style="opacity:0.986" fill="#000000" d="M 1620.5,601.5 C 1592.83,601.5 1565.17,601.5 1537.5,601.5C 1537.33,573.165 1537.5,544.831 1538,516.5C 1556.43,517.659 1574.93,517.825 1593.5,517C 1610.26,517.4 1620.43,509.567 1624,493.5C 1624.5,359.5 1624.67,225.5 1624.5,91.5C 1656.17,91.5 1687.83,91.5 1719.5,91.5C 1719.67,227.834 1719.5,364.167 1719,500.5C 1716.31,563.691 1683.47,597.357 1620.5,601.5 Z"/></g>
<g><path style="opacity:0.985" fill="#000000" d="M 1940.5,92.5 C 1983.75,89.2476 2024.08,98.4142 2061.5,120C 2109.12,152.364 2135.29,197.531 2140,255.5C 2140.5,270.163 2140.67,284.83 2140.5,299.5C 2049.5,299.5 1958.5,299.5 1867.5,299.5C 1869.46,315.625 1876.46,329.125 1888.5,340C 1922.38,367.38 1960.72,376.047 2003.5,366C 2025.55,360.313 2044.55,349.48 2060.5,333.5C 2082.22,348.02 2103.55,363.02 2124.5,378.5C 2094.71,413.404 2057.05,434.904 2011.5,443C 1959.48,451.291 1909.82,443.957 1862.5,421C 1804.44,387.826 1775.1,337.493 1774.5,270C 1775.27,205.771 1801.94,155.771 1854.5,120C 1881.19,104.334 1909.86,95.1673 1940.5,92.5 Z M 1951.5,168.5 C 1978.02,166.958 2002.02,173.792 2023.5,189C 2036.84,200.518 2044.84,215.018 2047.5,232.5C 1987.83,232.667 1928.17,232.5 1868.5,232C 1876.53,199.639 1896.86,179.639 1929.5,172C 1936.93,170.501 1944.26,169.334 1951.5,168.5 Z"/></g>
<g><path style="opacity:0.995" fill="#00aa12" d="M 291.5,187.5 C 350.432,186.363 389.932,213.363 410,268.5C 421.599,315.698 409.432,355.531 373.5,388C 331.482,418.441 287.482,421.441 241.5,397C 201.106,369.538 183.606,331.372 189,282.5C 201.598,227.397 235.764,195.731 291.5,187.5 Z"/></g>
</svg>
