<?xml version="1.0" encoding="UTF-8"?>
<!DOCTYPE svg PUBLIC "-//W3C//DTD SVG 1.1//EN" "http://www.w3.org/Graphics/SVG/1.1/DTD/svg11.dtd">
<svg xmlns="http://www.w3.org/2000/svg" version="1.1" width="2560px" height="909px" style="shape-rendering:geometricPrecision; text-rendering:geometricPrecision; image-rendering:optimizeQuality; fill-rule:evenodd; clip-rule:evenodd" xmlns:xlink="http://www.w3.org/1999/xlink">
<g><path style="opacity:0.979" fill="#00b14e" d="M 1913.5,-0.5 C 1936.17,-0.5 1958.83,-0.5 1981.5,-0.5C 1981.67,102.167 1981.5,204.834 1981,307.5C 1957.41,332.087 1935.24,357.754 1914.5,384.5C 1913.5,256.168 1913.17,127.835 1913.5,-0.5 Z"/></g>
<g><path style="opacity:0.981" fill="#00b14e" d="M 2013.5,-0.5 C 2036.17,-0.5 2058.83,-0.5 2081.5,-0.5C 2081.67,78.834 2081.5,158.167 2081,237.5C 2072.14,241.348 2063.64,245.848 2055.5,251C 2041.48,260.679 2027.81,270.846 2014.5,281.5C 2013.5,187.502 2013.17,93.5024 2013.5,-0.5 Z"/></g>
<g><path style="opacity:0.989" fill="#00b14f" d="M 455.5,908.5 C 434.833,908.5 414.167,908.5 393.5,908.5C 283.718,900.849 190.218,858.182 113,780.5C 44.2159,704.563 6.38255,615.23 -0.5,512.5C -0.5,492.5 -0.5,472.5 -0.5,452.5C 11.4231,315.88 73.4231,208.714 185.5,131C 272.968,75.2162 368.634,51.2162 472.5,59C 544.253,61.9226 610.92,81.5893 672.5,118C 677,121.167 681.5,124.333 686,127.5C 686.833,150.174 686.666,172.841 685.5,195.5C 630.643,159.153 570.31,137.32 504.5,130C 424.361,117.808 347.361,128.141 273.5,161C 166.628,214.57 101.128,300.07 77,417.5C 60.6048,518.538 80.6048,611.538 137,696.5C 205.157,787.84 296.657,836.007 411.5,841C 467.542,843.458 521.208,833.458 572.5,811C 650.437,771.412 696.937,708.246 712,621.5C 714.523,607.267 716.19,592.933 717,578.5C 717.5,550.502 717.667,522.502 717.5,494.5C 622.167,494.5 526.833,494.5 431.5,494.5C 431.5,472.5 431.5,450.5 431.5,428.5C 548.5,428.5 665.5,428.5 782.5,428.5C 782.832,478.177 782.332,527.843 781,577.5C 777.896,647.469 757.563,711.803 720,770.5C 674.977,834.13 614.477,875.63 538.5,895C 511.076,901.905 483.409,906.405 455.5,908.5 Z"/></g>
<g><path style="opacity:0.987" fill="#00b14f" d="M 417.5,158.5 C 500.364,156.038 578.698,173.538 652.5,211C 663.931,217.437 675.097,224.27 686,231.5C 686.667,253.5 686.667,275.5 686,297.5C 684.401,299.036 682.567,299.536 680.5,299C 589.055,237.727 488.722,215.394 379.5,232C 281.243,254.59 217.41,314.09 188,410.5C 171.922,476.618 177.256,540.952 204,603.5C 241.462,680.346 302.629,725.18 387.5,738C 439.064,745.205 488.398,737.872 535.5,716C 575.004,695.83 600.504,664.33 612,621.5C 613.877,613.27 614.71,604.937 614.5,596.5C 553.5,596.5 492.5,596.5 431.5,596.5C 431.5,573.5 431.5,550.5 431.5,527.5C 515.833,527.5 600.167,527.5 684.5,527.5C 684.667,548.836 684.5,570.169 684,591.5C 673.526,693.288 620.026,760.788 523.5,794C 441.389,817.535 361.389,811.868 283.5,777C 178.918,722.128 119.752,635.628 106,517.5C 96.1053,393.161 140.605,293.661 239.5,219C 293.207,182.375 352.54,162.209 417.5,158.5 Z"/></g>
<g><path style="opacity:0.987" fill="#00b14f" d="M 1542.5,908.5 C 1526.5,908.5 1510.5,908.5 1494.5,908.5C 1396.41,900.716 1317.58,858.049 1258,780.5C 1214.92,718.249 1193.75,649.083 1194.5,573C 1194.66,466.734 1234.33,378.734 1313.5,309C 1383.71,253.433 1463.71,229.433 1553.5,237C 1665.47,247.519 1748.97,301.352 1804,398.5C 1824.84,439.024 1837.17,482.024 1841,527.5C 1842.47,648.153 1842.97,768.82 1842.5,889.5C 1819.5,889.5 1796.5,889.5 1773.5,889.5C 1773.67,774.5 1773.5,659.5 1773,544.5C 1768.54,470.089 1738.38,408.589 1682.5,360C 1620.27,313.361 1550.6,296.694 1473.5,310C 1379.74,329.778 1315.58,384.278 1281,473.5C 1263.62,524.774 1259.62,577.107 1269,630.5C 1280.38,700.105 1314.21,755.605 1370.5,797C 1427.94,834.022 1490.6,847.688 1558.5,838C 1589,833.34 1617,822.506 1642.5,805.5C 1643.67,827.826 1643.83,850.159 1643,872.5C 1622.52,887.652 1599.68,897.818 1574.5,903C 1563.75,905.175 1553.08,907.008 1542.5,908.5 Z"/></g>
<g><path style="opacity:0.987" fill="#00b14f" d="M 2559.5,543.5 C 2559.5,562.5 2559.5,581.5 2559.5,600.5C 2552.69,690.94 2516.69,767.44 2451.5,830C 2398.83,876.159 2337.5,902.325 2267.5,908.5C 2249.83,908.5 2232.17,908.5 2214.5,908.5C 2119.04,900.43 2042.54,858.43 1985,782.5C 1971.39,762.609 1960.39,741.276 1952,718.5C 1951.33,717.167 1951.33,715.833 1952,714.5C 1967.67,693.334 1983.51,672.334 1999.5,651.5C 2023.2,739.698 2078.2,798.864 2164.5,829C 2244.97,853.173 2319.64,841.507 2388.5,794C 2441.87,751.803 2474.71,696.969 2487,629.5C 2499.94,558.811 2489.61,491.811 2456,428.5C 2409.77,352.601 2341.94,311.768 2252.5,306C 2188.94,302.636 2131.61,319.636 2080.5,357C 2042.67,386.833 2008.83,420.667 1979,458.5C 1943.03,503.781 1908.03,549.781 1874,596.5C 1873.33,562.833 1873.33,529.167 1874,495.5C 1903.63,452.58 1934.96,410.913 1968,370.5C 1999.36,333.786 2035.53,302.953 2076.5,278C 2139.6,243.58 2206.93,230.58 2278.5,239C 2396.92,255.753 2481.08,318.253 2531,426.5C 2546.66,464.118 2556.16,503.118 2559.5,543.5 Z"/></g>
<g><path style="opacity:0.99" fill="#00b04f" d="M 1096.5,242.5 C 1155.4,238.912 1210.74,251.079 1262.5,279C 1267.89,282.02 1272.89,285.52 1277.5,289.5C 1261.14,303.359 1246.31,318.693 1233,335.5C 1209.73,322.803 1184.9,314.637 1158.5,311C 1090.18,300.586 1028.52,315.92 973.5,357C 925.653,399.197 899.487,452.363 895,516.5C 894.5,640.833 894.333,765.166 894.5,889.5C 871.833,889.5 849.167,889.5 826.5,889.5C 826.333,765.166 826.5,640.833 827,516.5C 829.802,453.752 849.469,397.086 886,346.5C 929.196,292.796 985.029,259.963 1053.5,248C 1067.91,245.605 1082.25,243.771 1096.5,242.5 Z"/></g>
<g><path style="opacity:0.989" fill="#00b14f" d="M 1504.5,336.5 C 1565.31,332.385 1619.31,349.219 1666.5,387C 1712.36,428.563 1737.53,480.396 1742,542.5C 1742.5,658.166 1742.67,773.833 1742.5,889.5C 1720.17,889.5 1697.83,889.5 1675.5,889.5C 1675.67,780.166 1675.5,670.833 1675,561.5C 1674.22,512.455 1656.06,471.289 1620.5,438C 1583.87,409.864 1542.54,399.198 1496.5,406C 1441.74,416.753 1402.91,447.587 1380,498.5C 1359.75,548.019 1359.42,597.685 1379,647.5C 1404.23,703.384 1447.4,734.55 1508.5,741C 1546.98,743.371 1583.64,736.371 1618.5,720C 1626.5,715.667 1634.17,710.833 1641.5,705.5C 1642.09,705.709 1642.59,706.043 1643,706.5C 1643.83,729.406 1643.66,752.239 1642.5,775C 1586.83,806.716 1527.49,816.383 1464.5,804C 1385.18,783.017 1332.68,733.517 1307,655.5C 1288.41,591.768 1291.41,529.101 1316,467.5C 1354.11,388.353 1416.95,344.687 1504.5,336.5 Z"/></g>
<g><path style="opacity:0.987" fill="#00b14f" d="M 2220.5,336.5 C 2298.35,332.028 2362.18,359.361 2412,418.5C 2448.81,469.06 2465.15,525.727 2461,588.5C 2457.15,662.037 2426.98,721.871 2370.5,768C 2313.42,807.793 2251.08,818.793 2183.5,801C 2126.2,782.021 2082.36,746.521 2052,694.5C 2038.39,671.008 2029.56,645.841 2025.5,619C 2042.7,596.099 2059.53,572.932 2076,549.5C 2077.26,547.393 2079.1,546.393 2081.5,546.5C 2079.18,602.043 2096.01,650.71 2132,692.5C 2181.21,741.343 2238.37,753.51 2303.5,729C 2344.09,708.4 2370.93,676.233 2384,632.5C 2399.03,580.75 2394.7,530.75 2371,482.5C 2336.6,426.715 2286.43,401.215 2220.5,406C 2183.41,409.908 2151.07,424.241 2123.5,449C 2113.7,457.803 2104.2,466.97 2095,476.5C 2016.02,566.51 1942.36,660.51 1874,758.5C 1873.33,721.5 1873.33,684.5 1874,647.5C 1926.75,575.074 1981.42,504.074 2038,434.5C 2068.16,400.655 2103.66,374.155 2144.5,355C 2169.04,345.03 2194.38,338.863 2220.5,336.5 Z"/></g>
<g><path style="opacity:0.984" fill="#00b14f" d="M 1107.5,338.5 C 1145.65,336.492 1180.98,345.325 1213.5,365C 1201.9,383.358 1191.74,402.525 1183,422.5C 1140.37,402.371 1097.87,402.538 1055.5,423C 1024.95,441.239 1005.45,467.739 997,502.5C 994.907,511.389 993.574,520.389 993,529.5C 992.5,649.5 992.333,769.5 992.5,889.5C 969.833,889.5 947.167,889.5 924.5,889.5C 924.333,769.166 924.5,648.833 925,528.5C 927.304,465.392 952.804,414.225 1001.5,375C 1033.4,352.755 1068.73,340.589 1107.5,338.5 Z"/></g>
</svg>
