<?xml version="1.0" encoding="UTF-8"?>
<!DOCTYPE svg PUBLIC "-//W3C//DTD SVG 1.1//EN" "http://www.w3.org/Graphics/SVG/1.1/DTD/svg11.dtd">
<svg xmlns="http://www.w3.org/2000/svg" version="1.1" width="203px" height="300px" style="shape-rendering:geometricPrecision; text-rendering:geometricPrecision; image-rendering:optimizeQuality; fill-rule:evenodd; clip-rule:evenodd" xmlns:xlink="http://www.w3.org/1999/xlink">
<g><path style="opacity:0.983" fill="#ea501f" d="M 97.5,-0.5 C 101.5,-0.5 105.5,-0.5 109.5,-0.5C 124.665,4.8297 135.165,15.163 141,30.5C 144.599,39.8969 147.099,49.5635 148.5,59.5C 163.822,60.3329 179.156,60.8329 194.5,61C 198.35,62.3532 201.017,64.8532 202.5,68.5C 202.5,70.1667 202.5,71.8333 202.5,73.5C 199.187,115.001 196.021,156.667 193,198.5C 191.354,210.143 184.854,217.31 173.5,220C 126.833,220.667 80.1667,220.667 33.5,220C 23.5664,217.067 17.3998,210.567 15,200.5C 11.2841,156.195 8.28406,111.862 6,67.5C 7.5,64.6667 9.66667,62.5 12.5,61C 28.1631,60.5001 43.8298,60.3334 59.5,60.5C 60.9741,39.0599 69.3074,20.8932 84.5,6C 88.657,3.25475 92.9904,1.08809 97.5,-0.5 Z M 101.5,11.5 C 110.056,11.8752 116.889,15.5419 122,22.5C 129.568,34.0339 134.068,46.7006 135.5,60.5C 114.5,60.5 93.5,60.5 72.5,60.5C 73.5723,44.4407 79.239,30.274 89.5,18C 93.1574,15.0078 97.1574,12.8412 101.5,11.5 Z"/></g>
<g><path style="opacity:1" fill="#fef8f7" d="M 96.5,87.5 C 109.255,86.4158 121.088,89.0825 132,95.5C 132.667,97.5 132.667,99.5 132,101.5C 130.938,102.097 129.772,102.43 128.5,102.5C 122.35,100.095 116.017,98.2619 109.5,97C 91.8402,94.6985 84.3402,102.198 87,119.5C 88.8333,121.333 90.6667,123.167 92.5,125C 102.671,129.723 113.004,134.057 123.5,138C 141.996,151.798 143.329,167.132 127.5,184C 124.446,186.194 121.112,187.861 117.5,189C 108.658,190.126 99.9917,189.459 91.5,187C 85.2211,184.527 79.2211,181.527 73.5,178C 68.0242,174.111 68.1909,170.611 74,167.5C 81.1249,171.98 88.6249,175.813 96.5,179C 105.129,181.503 113.462,180.836 121.5,177C 131.132,166.631 130.798,156.631 120.5,147C 109.418,142.528 98.4183,137.862 87.5,133C 75.7366,124.085 73.2366,112.918 80,99.5C 84.2334,93.6449 89.7334,89.6449 96.5,87.5 Z"/></g>
<g><path style="opacity:0.827" fill="#ec501f" d="M 38.5,234.5 C 40.1439,234.286 41.6439,234.62 43,235.5C 43.3333,242.5 43.6667,249.5 44,256.5C 50.9786,250.879 57.6453,251.212 64,257.5C 66.435,265.309 67.1017,273.309 66,281.5C 64.6043,283.527 62.9376,283.86 61,282.5C 60.8917,275.089 60.225,267.755 59,260.5C 53.3366,257.41 48.3366,258.41 44,263.5C 43.6667,269.833 43.3333,276.167 43,282.5C 41.5421,283.747 40.0421,283.747 38.5,282.5C 37.1836,266.436 37.1836,250.436 38.5,234.5 Z"/></g>
<g><path style="opacity:0.797" fill="#ed501e" d="M 82.5,252.5 C 98.5361,253.358 104.036,261.358 99,276.5C 90.3333,285.833 81.6667,285.833 73,276.5C 68.2399,265.27 71.4065,257.27 82.5,252.5 Z M 82.5,258.5 C 91.9874,257.819 96.1541,262.153 95,271.5C 92.3674,276.732 88.2008,278.565 82.5,277C 77.2685,274.367 75.4351,270.201 77,264.5C 78.3597,261.977 80.193,259.977 82.5,258.5 Z"/></g>
<g><path style="opacity:0.822" fill="#ed501f" d="M 111.5,299.5 C 109.833,299.5 108.167,299.5 106.5,299.5C 106.333,284.163 106.5,268.83 107,253.5C 110.062,251.87 111.729,252.87 112,256.5C 120.509,250.572 128.176,251.572 135,259.5C 139.275,268.903 137.109,276.403 128.5,282C 122.48,284.426 116.98,283.593 112,279.5C 111.5,286.158 111.334,292.825 111.5,299.5 Z M 118.5,258.5 C 127.987,257.819 132.154,262.153 131,271.5C 128.081,277.025 123.581,278.858 117.5,277C 110.677,270.427 111.01,264.26 118.5,258.5 Z"/></g>
<g><path style="opacity:0.751" fill="#ed501f" d="M 152.5,252.5 C 164.45,251.952 170.117,257.452 169.5,269C 162.167,269.333 154.833,269.667 147.5,270C 148.361,272.868 150.028,275.202 152.5,277C 157.625,277.539 162.625,277.205 167.5,276C 168.833,277.667 168.833,279.333 167.5,281C 158.334,285.511 150.501,284.011 144,276.5C 139.847,265.841 142.68,257.841 152.5,252.5 Z M 153.5,258.5 C 158.311,257.74 161.978,259.407 164.5,263.5C 159.167,264.833 153.833,264.833 148.5,263.5C 149.882,261.451 151.548,259.785 153.5,258.5 Z"/></g>
<g><path style="opacity:0.782" fill="#ed501f" d="M 202.5,262.5 C 202.5,264.5 202.5,266.5 202.5,268.5C 195.254,269.464 187.92,269.797 180.5,269.5C 180.544,273.09 182.211,275.59 185.5,277C 190.288,277.482 194.955,277.148 199.5,276C 202.129,278.789 201.462,280.789 197.5,282C 181.013,285.845 173.513,279.345 175,262.5C 179.751,253.028 186.918,250.528 196.5,255C 199.153,257.134 201.153,259.634 202.5,262.5 Z M 185.5,258.5 C 190.311,257.74 193.978,259.407 196.5,263.5C 191.198,264.663 185.864,264.829 180.5,264C 181.692,261.645 183.359,259.812 185.5,258.5 Z"/></g>
<g><path style="opacity:0.81" fill="#ed501e" d="M -0.5,276.5 C -0.5,275.167 -0.5,273.833 -0.5,272.5C 0.264561,272.077 1.09789,271.743 2,271.5C 8.07891,276.194 14.9122,278.027 22.5,277C 26.7532,273.58 27.5865,269.413 25,264.5C 19.7201,261.624 14.2201,259.124 8.5,257C 2.01042,251.963 0.843758,245.796 5,238.5C 12.39,232.49 20.2233,231.99 28.5,237C 31.372,239.532 31.0387,241.365 27.5,242.5C 22.9985,240.493 18.3318,239.66 13.5,240C 7.75571,243.132 7.08905,247.132 11.5,252C 17.0574,253.778 22.3907,256.111 27.5,259C 34.5885,267.3 33.9218,274.967 25.5,282C 15.9642,284.436 7.29756,282.603 -0.5,276.5 Z"/></g>
</svg>
